<svg width="191" height="36" viewBox="0 0 191 36" fill="none" xmlns="http://www.w3.org/2000/svg">
<path fill-rule="evenodd" clip-rule="evenodd" d="M38 36C47.9411 36 56 27.9411 56 18C56 8.05887 47.9411 0 38 0C28.0589 0 20 8.05887 20 18C20 27.9411 28.0589 36 38 36ZM40.802 11.7316C41.4256 12.1907 41.7785 12.8348 41.8607 13.664H46.1263C46.1058 12.41 45.77 11.3067 45.119 10.3542C44.468 9.40175 43.5567 8.65826 42.3849 8.12377C41.22 7.58928 39.8563 7.32203 38.294 7.32203C36.759 7.32203 35.3886 7.58928 34.1825 8.12377C32.9765 8.65826 32.0274 9.40175 31.3353 10.3542C30.6501 11.3067 30.3109 12.4202 30.3178 13.6948C30.3109 15.2503 30.8214 16.4872 31.8493 17.4054C32.3057 17.8131 32.8357 18.1729 33.4394 18.4847L29.7627 22.0513C29.797 23.5657 30.1636 24.8369 30.8625 25.8647C31.5683 26.8857 32.5482 27.6566 33.8022 28.1774C35.0631 28.6982 36.5432 28.9586 38.2426 28.9586C39.9557 28.9586 41.4187 28.7016 42.6316 28.1877C43.8513 27.6669 44.7833 26.9371 45.4274 25.9983C46.0784 25.0527 46.4073 23.9358 46.4141 22.6475C46.4073 21.7704 46.2462 20.9926 45.931 20.3143C45.6227 19.6359 45.1875 19.0466 44.6256 18.5463C44.0637 18.0461 43.3991 17.6247 42.6316 17.282C41.8641 16.9394 41.0213 16.6653 40.103 16.4598L38.2118 16.0075C37.7527 15.9047 37.3209 15.7814 36.9167 15.6375C36.5124 15.4867 36.156 15.312 35.8477 15.1133C35.5393 14.9077 35.2961 14.6644 35.1179 14.3835C34.9466 14.1025 34.8678 13.7736 34.8815 13.3967C34.8815 12.9445 35.0117 12.5402 35.2721 12.1838C35.5393 11.8275 35.9231 11.55 36.4233 11.3513C36.9235 11.1457 37.5368 11.0429 38.2632 11.0429C39.3321 11.0429 40.1784 11.2725 40.802 11.7316ZM34.6634 23.8025L34.6759 23.8193C35.0391 24.2852 35.5222 24.6381 36.1252 24.878C36.7351 25.111 37.4237 25.2274 38.1912 25.2274C38.945 25.2274 39.5994 25.1178 40.1544 24.8985C40.7163 24.6793 41.1515 24.3743 41.4598 23.9837C41.7682 23.5931 41.9224 23.1443 41.9224 22.6372C41.9224 22.1644 41.7819 21.767 41.5009 21.4449C41.2268 21.1228 40.8225 20.8487 40.2881 20.6226C39.7817 20.4056 39.1648 20.2075 38.4375 20.0283L34.6634 23.8025Z" fill="#E34747"/>
<path d="M73.392 14.04L70.416 14.952C70.248 14.016 69.48 12.552 67.32 12.552C65.712 12.552 64.656 13.584 64.656 14.712C64.656 15.648 65.256 16.392 66.504 16.632L68.88 17.088C71.976 17.688 73.632 19.704 73.632 22.104C73.632 24.72 71.448 27.36 67.488 27.36C62.976 27.36 60.984 24.456 60.72 22.032L63.792 21.216C63.936 22.896 65.112 24.408 67.512 24.408C69.288 24.408 70.272 23.52 70.272 22.32C70.272 21.336 69.528 20.568 68.208 20.304L65.832 19.824C63.12 19.272 61.368 17.52 61.368 14.952C61.368 11.928 64.08 9.624 67.296 9.624C71.424 9.624 73.008 12.12 73.392 14.04ZM80.4386 17.784C78.8066 17.784 77.4386 18.96 77.4386 21.096C77.4386 23.232 78.8306 24.432 80.4626 24.432C82.0946 24.432 82.9106 23.352 83.1746 22.44L85.9826 23.376C85.4546 25.344 83.6066 27.36 80.4626 27.36C76.9826 27.36 74.2466 24.72 74.2466 21.096C74.2466 17.448 76.9346 14.832 80.3666 14.832C83.5826 14.832 85.4066 16.824 85.9106 18.816L83.0546 19.776C82.7666 18.792 82.0226 17.784 80.4386 17.784ZM94.5699 15.144V18.36C94.2099 18.288 93.8979 18.264 93.6099 18.264C91.9779 18.264 90.5619 19.056 90.5619 21.6V27H87.3699V15.192H90.4659V16.944C91.1859 15.384 92.8179 15.096 93.8259 15.096C94.0899 15.096 94.3299 15.12 94.5699 15.144ZM101.042 24.456C102.602 24.456 104.042 23.328 104.042 21.096C104.042 18.864 102.602 17.736 101.042 17.736C99.4821 17.736 98.0421 18.864 98.0421 21.096C98.0421 23.304 99.4821 24.456 101.042 24.456ZM101.042 14.832C104.57 14.832 107.234 17.448 107.234 21.096C107.234 24.72 104.57 27.36 101.042 27.36C97.5141 27.36 94.8501 24.72 94.8501 21.096C94.8501 17.448 97.5141 14.832 101.042 14.832ZM111.986 27H108.794V9.624H111.986V27ZM117.635 27H114.443V9.624H117.635V27ZM129.044 27H119.276V24.192L124.868 17.952H119.42V15.192H128.948V17.856L123.188 24.216H129.044V27Z" fill="#E34747"/>
</svg>
