<svg width="110" height="36" viewBox="0 0 110 36" fill="none" xmlns="http://www.w3.org/2000/svg">
<path fill-rule="evenodd" clip-rule="evenodd" d="M18 36C27.9411 36 36 27.9411 36 18C36 8.05887 27.9411 0 18 0C8.05887 0 0 8.05887 0 18C0 27.9411 8.05887 36 18 36ZM6.72656 14.4062C6.72656 14.8828 6.97656 15.1211 7.47656 15.1211C7.67969 15.1211 7.875 15.0703 8.0625 14.9688C9.3125 14.2891 11.3008 13.6562 14.0273 13.0703L12.5273 15.3203L11.0859 17.582L9.80859 19.6797L8.76562 21.4609C8.46875 21.9844 8.23438 22.4219 8.0625 22.7734C7.89062 23.1172 7.78516 23.3984 7.74609 23.6172C7.71484 23.8281 7.76562 24.0469 7.89844 24.2734C8.29688 24.9453 9.21484 25.2812 10.6523 25.2812C12.3945 25.2812 13.3984 24.7656 13.6641 23.7344C14.3281 21.0859 15.5703 18.1094 17.3906 14.8047L18.8203 12.2734C19.7344 12.1875 20.5078 12.1445 21.1406 12.1445C21.5078 12.1445 21.9062 12.375 22.3359 12.8359C22.5703 13.0938 22.6875 13.4141 22.6875 13.7969C22.6875 14.3828 22.3438 15.0391 21.6562 15.7656C21.3438 16.1094 20.9727 16.4414 20.543 16.7617C20.1133 17.082 19.5586 17.4219 18.8789 17.7812C18.1992 18.1328 17.6758 18.4648 17.3086 18.7773C17.0742 18.9805 16.8867 19.1914 16.7461 19.4102C16.6133 19.6289 16.5469 19.8789 16.5469 20.1602C16.5469 20.4414 16.6797 20.7773 16.9453 21.168C17.2109 21.5508 17.6992 22.1367 18.4102 22.9258C19.1211 23.7148 20.0469 24.6094 21.1875 25.6094C23.2031 27.375 24.5117 28.2578 25.1133 28.2578C25.8555 28.2578 26.6875 27.8594 27.6094 27.0625C28.8516 25.9922 29.4727 24.9922 29.4727 24.0625C29.4727 23.8594 29.3867 23.6758 29.2148 23.5117C29.043 23.3398 28.8438 23.2539 28.6172 23.2539C28.3906 23.2539 28.168 23.3203 27.9492 23.4531C27.1523 23.9062 26.4609 23.9609 25.875 23.6172C25.7422 23.5391 25.5625 23.4219 25.3359 23.2656C23.4219 21.9062 22.1367 20.5898 21.4805 19.3164C21.793 19.1367 22.8594 18.5547 24.6797 17.5703C25.1797 17.2891 25.6484 17.0078 26.0859 16.7266C27.5391 15.8125 28.2656 14.8789 28.2656 13.9258C28.2656 13.0742 27.8008 11.9727 26.8711 10.6211C26.5742 10.1914 26.0547 9.83203 25.3125 9.54297C24.9688 9.41016 24.6055 9.30078 24.2227 9.21484C23.8398 9.12109 23.457 9.04688 23.0742 8.99219C22.6914 8.92969 22.3203 8.88672 21.9609 8.86328C21.6094 8.83984 21.0117 8.82812 20.168 8.82812C19.3242 8.82812 17.9766 8.90625 16.125 9.0625C11.8672 9.4375 9.42578 9.85547 8.80078 10.3164C8.41016 10.6055 8.02734 11.125 7.65234 11.875C7.48828 12.1953 7.29297 12.6445 7.06641 13.2227C6.83984 13.793 6.72656 14.1875 6.72656 14.4062Z" fill="#120A2B"/>
<path d="M53.392 14.04L50.416 14.952C50.248 14.016 49.48 12.552 47.32 12.552C45.712 12.552 44.656 13.584 44.656 14.712C44.656 15.648 45.256 16.392 46.504 16.632L48.88 17.088C51.976 17.688 53.632 19.704 53.632 22.104C53.632 24.72 51.448 27.36 47.488 27.36C42.976 27.36 40.984 24.456 40.72 22.032L43.792 21.216C43.936 22.896 45.112 24.408 47.512 24.408C49.288 24.408 50.272 23.52 50.272 22.32C50.272 21.336 49.528 20.568 48.208 20.304L45.832 19.824C43.12 19.272 41.368 17.52 41.368 14.952C41.368 11.928 44.08 9.624 47.296 9.624C51.424 9.624 53.008 12.12 53.392 14.04ZM60.4386 17.784C58.8066 17.784 57.4386 18.96 57.4386 21.096C57.4386 23.232 58.8306 24.432 60.4626 24.432C62.0946 24.432 62.9106 23.352 63.1746 22.44L65.9826 23.376C65.4546 25.344 63.6066 27.36 60.4626 27.36C56.9826 27.36 54.2466 24.72 54.2466 21.096C54.2466 17.448 56.9346 14.832 60.3666 14.832C63.5826 14.832 65.4066 16.824 65.9106 18.816L63.0546 19.776C62.7666 18.792 62.0226 17.784 60.4386 17.784ZM74.5699 15.144V18.36C74.2099 18.288 73.8979 18.264 73.6099 18.264C71.9779 18.264 70.5619 19.056 70.5619 21.6V27H67.3699V15.192H70.4659V16.944C71.1859 15.384 72.8179 15.096 73.8259 15.096C74.0899 15.096 74.3299 15.12 74.5699 15.144ZM81.0421 24.456C82.6021 24.456 84.0421 23.328 84.0421 21.096C84.0421 18.864 82.6021 17.736 81.0421 17.736C79.4821 17.736 78.0421 18.864 78.0421 21.096C78.0421 23.304 79.4821 24.456 81.0421 24.456ZM81.0421 14.832C84.5701 14.832 87.2341 17.448 87.2341 21.096C87.2341 24.72 84.5701 27.36 81.0421 27.36C77.5141 27.36 74.8501 24.72 74.8501 21.096C74.8501 17.448 77.5141 14.832 81.0421 14.832ZM91.9857 27H88.7937V9.624H91.9857V27ZM97.6351 27H94.4431V9.624H97.6351V27ZM109.044 27H99.2764V24.192L104.868 17.952H99.4204V15.192H108.948V17.856L103.188 24.216H109.044V27Z" fill="#120A2B"/>
</svg>
