<svg width="74" height="74" viewBox="0 0 74 74" fill="none" xmlns="http://www.w3.org/2000/svg">
<g clip-path="url(#clip0_7438_24505)">
<rect width="74" height="74" rx="37" fill="#FCEDED"/>
<g clip-path="url(#clip1_7438_24505)">
<path d="M38.7275 62.0055L0.439787 73.8991C-1.22708 74.413 -2.78115 72.8589 -2.2673 71.192L9.62634 32.9043L38.7275 62.0055Z" fill="#A684DA"/>
<path d="M39.9041 61.3269C42.6939 58.5371 38.3295 49.6496 30.156 41.4761C21.9825 33.3026 13.095 28.9382 10.3052 31.728C7.51546 34.5177 11.8799 43.4052 20.0534 51.5788C28.2269 59.7523 37.1144 64.1167 39.9041 61.3269Z" fill="#CBB2EB"/>
<path d="M33.2371 63.7099L25.8302 66.0159C24.1884 65.4269 22.5717 64.725 20.98 63.8979C17.5209 62.1057 14.1997 59.762 11.1041 56.9171C10.6028 56.4534 10.0514 55.927 9.46234 55.3505C7.94587 53.834 6.20381 51.904 4.44922 49.5979L5.96569 44.6851C8.74797 48.871 11.7558 51.9792 13.8614 53.9092C19.7769 59.3359 26.2939 62.632 33.2371 63.7099Z" fill="#CBB2EB"/>
<path d="M20.8668 67.5449L15.0265 69.3621C11.6802 67.595 8.47183 65.3015 5.46395 62.5443C4.96264 62.0806 4.41119 61.5542 3.82215 60.9777C3.13284 60.2884 2.39341 59.5113 1.62891 58.6466L3.05765 54.022C4.96264 56.3781 6.79243 58.2205 8.22117 59.5364C12.1941 63.1709 16.4176 65.853 20.8668 67.5449Z" fill="#CBB2EB"/>
<path d="M10.2883 70.8416L5.1624 72.4333C3.33261 71.18 1.54042 69.7513 -0.164044 68.1847C-0.452298 67.9215 -0.753086 67.6458 -1.06641 67.3325L0.29967 62.9209C1.12684 63.7857 1.9164 64.5376 2.59318 65.1643C5.06214 67.4327 7.63137 69.3252 10.2883 70.8416Z" fill="#CBB2EB"/>
<path d="M19.911 37.7553L18.0938 35.938C20.9763 33.0555 22.6181 29.3583 22.9815 24.9342C23.2573 21.5754 22.6557 19.0313 22.6432 19.0062L25.1372 18.3921C25.1623 18.5049 25.839 21.2872 25.5508 25.047C25.1623 30.0727 23.2071 34.4592 19.911 37.7553Z" fill="#E35BAD"/>
<path d="M34.3251 53.9842L32.5078 52.167C36.0546 48.6202 41.0803 46.828 47.0333 47.0035C51.4574 47.1288 54.8162 48.2818 54.9541 48.3319L54.1144 50.7508L54.528 49.5351L54.1144 50.7508C54.0768 50.7382 50.9311 49.6729 46.883 49.5601C41.6317 49.4223 37.3956 50.9137 34.3251 53.9842Z" fill="#FE7122"/>
<path d="M25.4531 35.1601C26.3806 33.6185 27.6088 33.2175 28.4986 32.9167C29.2506 32.666 29.7143 32.5156 30.1529 31.7887C30.5916 31.0618 30.5164 30.5856 30.3785 29.796C30.2156 28.8686 30.0025 27.6028 30.93 26.0612C31.8574 24.5197 33.0856 24.1186 33.9754 23.8179C34.7274 23.5672 35.1911 23.4168 35.6298 22.6899C36.0684 21.963 35.9932 21.4867 35.8554 20.6972C35.6924 19.7698 35.4794 18.5039 36.4068 16.9624L38.6 18.2783C38.1614 19.0053 38.2366 19.4815 38.3745 20.2711C38.5374 21.1985 38.7504 22.4643 37.823 24.0058C36.8956 25.5474 35.6674 25.9484 34.7775 26.2492C34.0256 26.4999 33.5619 26.6503 33.1232 27.3772C32.6846 28.1041 32.7598 28.5803 32.8976 29.3699C33.0605 30.2973 33.2736 31.5631 32.3462 33.1047C31.4187 34.6462 30.1905 35.0473 29.3007 35.348C28.5487 35.5987 28.085 35.7491 27.6464 36.476L25.4531 35.1601Z" fill="#FE7122"/>
<path d="M36.0306 42.0405L34.7773 39.8096C36.3941 38.8947 37.6975 39.1579 38.65 39.3585C39.4771 39.5214 39.9659 39.6216 40.768 39.183C41.5576 38.7443 41.7331 38.2681 42.0213 37.466C42.3472 36.5511 42.8109 35.3104 44.4276 34.3955C46.0443 33.4806 47.3478 33.7438 48.3002 33.9317C49.1274 34.0947 49.6162 34.1949 50.4183 33.7563C51.2079 33.3176 51.3833 32.8289 51.6716 32.0393C51.9974 31.1244 52.4611 29.8836 54.0779 28.9688L55.3312 31.1996C54.5416 31.6382 54.3661 32.127 54.0779 32.9166C53.752 33.8315 53.2883 35.0722 51.6716 35.9871C50.0548 36.902 48.7514 36.6388 47.7989 36.4508C46.9718 36.2879 46.483 36.1877 45.6809 36.6263C44.8913 37.0649 44.7159 37.5412 44.4276 38.3433C44.1018 39.2582 43.638 40.4989 42.0213 41.4138C40.4046 42.3287 39.1012 42.0655 38.1487 41.865C37.3215 41.6896 36.8202 41.5893 36.0306 42.0405Z" fill="#E35BAD"/>
<path d="M52.2862 42.2051C52.9922 42.2051 53.5645 41.6328 53.5645 40.9268C53.5645 40.2208 52.9922 39.6484 52.2862 39.6484C51.5801 39.6484 51.0078 40.2208 51.0078 40.9268C51.0078 41.6328 51.5801 42.2051 52.2862 42.2051Z" fill="#CBB2EB"/>
<path d="M46.5713 57.167C47.2773 57.167 47.8497 56.5947 47.8497 55.8887C47.8497 55.1827 47.2773 54.6104 46.5713 54.6104C45.8653 54.6104 45.293 55.1827 45.293 55.8887C45.293 56.5947 45.8653 57.167 46.5713 57.167Z" fill="#FFB992"/>
<path d="M58.3643 46.2896C59.0703 46.2896 59.6426 45.7173 59.6426 45.0113C59.6426 44.3052 59.0703 43.7329 58.3643 43.7329C57.6583 43.7329 57.0859 44.3052 57.0859 45.0113C57.0859 45.7173 57.6583 46.2896 58.3643 46.2896Z" fill="#A684DA"/>
<path d="M47.9229 28.606C48.6289 28.606 49.2012 28.0337 49.2012 27.3277C49.2012 26.6217 48.6289 26.0493 47.9229 26.0493C47.2169 26.0493 46.6445 26.6217 46.6445 27.3277C46.6445 28.0337 47.2169 28.606 47.9229 28.606Z" fill="#CBB2EB"/>
<path d="M29.0752 19.168C29.7812 19.168 30.3536 18.5957 30.3536 17.8897C30.3536 17.1837 29.7812 16.6113 29.0752 16.6113C28.3692 16.6113 27.7969 17.1837 27.7969 17.8897C27.7969 18.5957 28.3692 19.168 29.0752 19.168Z" fill="#E35BAD"/>
<path d="M37.9619 30.2349C38.668 30.2349 39.2403 29.6626 39.2403 28.9566C39.2403 28.2506 38.668 27.6782 37.9619 27.6782C37.2559 27.6782 36.6836 28.2506 36.6836 28.9566C36.6836 29.6626 37.2559 30.2349 37.9619 30.2349Z" fill="#FE7122"/>
<path d="M28.2471 46.1016C28.9531 46.1016 29.5254 45.5293 29.5254 44.8233C29.5254 44.1173 28.9531 43.5449 28.2471 43.5449C27.5411 43.5449 26.9688 44.1173 26.9688 44.8233C26.9688 45.5293 27.5411 46.1016 28.2471 46.1016Z" fill="#A684DA"/>
<path d="M14.8369 25.2471C15.543 25.2471 16.1153 24.6748 16.1153 23.9688C16.1153 23.2628 15.543 22.6904 14.8369 22.6904C14.1309 22.6904 13.5586 23.2628 13.5586 23.9688C13.5586 24.6748 14.1309 25.2471 14.8369 25.2471Z" fill="#F7C9E3"/>
</g>
</g>
<defs>
<clipPath id="clip0_7438_24505">
<rect width="74" height="74" rx="37" fill="white"/>
</clipPath>
<clipPath id="clip1_7438_24505">
<rect width="62.0124" height="57.3878" fill="white" transform="translate(-2.36719 16.6118)"/>
</clipPath>
</defs>
</svg>
